<svg width="50" height="50" viewBox="0 0 50 50" fill="none" xmlns="http://www.w3.org/2000/svg">
<circle cx="25" cy="25" r="25" fill="#7900FF"/>
<path d="M19.5704 27.072C19.5704 27.712 19.405 28.2507 19.0744 28.688C18.7437 29.1147 18.2957 29.44 17.7304 29.664C17.1757 29.888 16.5677 30 15.9064 30H10.4184V18.64H16.4984C17.0317 18.64 17.4904 18.784 17.8744 19.072C18.269 19.3493 18.5677 19.712 18.7704 20.16C18.9837 20.5973 19.0904 21.056 19.0904 21.536C19.0904 22.08 18.9517 22.5973 18.6744 23.088C18.397 23.5787 17.9917 23.9413 17.4584 24.176C18.109 24.368 18.621 24.7147 18.9944 25.216C19.3784 25.7173 19.5704 26.336 19.5704 27.072ZM17.3464 26.656C17.3464 26.368 17.2877 26.112 17.1704 25.888C17.053 25.6533 16.893 25.472 16.6904 25.344C16.4984 25.2053 16.2744 25.136 16.0184 25.136H12.6264V28.128H15.9064C16.173 28.128 16.413 28.064 16.6264 27.936C16.8504 27.7973 17.0264 27.616 17.1544 27.392C17.2824 27.168 17.3464 26.9227 17.3464 26.656ZM12.6264 20.528V23.392H15.5704C15.8157 23.392 16.0397 23.3333 16.2424 23.216C16.445 23.0987 16.605 22.9333 16.7224 22.72C16.8504 22.5067 16.9144 22.2507 16.9144 21.952C16.9144 21.664 16.8557 21.4133 16.7384 21.2C16.6317 20.9867 16.4824 20.8213 16.2904 20.704C16.109 20.5867 15.901 20.528 15.6664 20.528H12.6264ZM22.0578 18.64L24.8578 23.984L27.7058 18.64H30.0898L25.9618 26.032V30H23.7698V26L19.6578 18.64H22.0578ZM39.2283 28.064V30H31.3403V18.64H39.0843V20.576H33.5483V23.312H38.3323V25.104H33.5483V28.064H39.2283Z" fill="white"/>
</svg>
