<svg width="135" height="61" viewBox="0 0 135 61" fill="none" xmlns="http://www.w3.org/2000/svg">
<path d="M26.7862 19.0391H20.8757C20.7678 18.2744 20.5473 17.5952 20.2145 17.0014C19.8816 16.3987 19.4543 15.8859 18.9325 15.4631C18.4107 15.0402 17.808 14.7164 17.1243 14.4915C16.4496 14.2666 15.7164 14.1541 14.9247 14.1541C13.4943 14.1541 12.2483 14.5095 11.1868 15.2202C10.1252 15.9219 9.30208 16.9474 8.71733 18.2969C8.13258 19.6373 7.8402 21.2656 7.8402 23.1818C7.8402 25.152 8.13258 26.8073 8.71733 28.1477C9.31108 29.4882 10.1387 30.5002 11.2003 31.1839C12.2618 31.8677 13.4898 32.2095 14.8842 32.2095C15.6669 32.2095 16.3911 32.1061 17.0568 31.8991C17.7315 31.6922 18.3298 31.3909 18.8516 30.995C19.3733 30.5902 19.8052 30.0999 20.147 29.5241C20.4979 28.9484 20.7408 28.2917 20.8757 27.554L26.7862 27.581C26.6333 28.8494 26.2509 30.0729 25.6392 31.2514C25.0365 32.4209 24.2223 33.469 23.1967 34.3956C22.1802 35.3132 20.9657 36.0419 19.5533 36.5817C18.1499 37.1125 16.562 37.3778 14.7898 37.3778C12.3248 37.3778 10.1207 36.8201 8.17756 35.7045C6.24337 34.589 4.71402 32.9742 3.58949 30.8601C2.47396 28.746 1.91619 26.1866 1.91619 23.1818C1.91619 20.1681 2.48295 17.6042 3.61648 15.4901C4.75 13.3759 6.28835 11.7656 8.23153 10.6591C10.1747 9.54356 12.3608 8.98579 14.7898 8.98579C16.3911 8.98579 17.8755 9.2107 19.2429 9.66051C20.6193 10.1103 21.8383 10.767 22.8999 11.6307C23.9614 12.4853 24.825 13.5334 25.4908 14.7749C26.1655 16.0163 26.5973 17.4377 26.7862 19.0391ZM35.2202 37H28.9588L38.4993 9.36364H46.0291L55.5561 37H49.2947L42.3722 15.679H42.1562L35.2202 37ZM34.8288 26.1371H49.6186V30.6982H34.8288V26.1371ZM54.4529 14.1811V9.36364H77.1504V14.1811H68.6895V37H62.9139V14.1811H54.4529ZM104.011 19.0391H98.1003C97.9924 18.2744 97.772 17.5952 97.4391 17.0014C97.1062 16.3987 96.6789 15.8859 96.1571 15.4631C95.6354 15.0402 95.0326 14.7164 94.3489 14.4915C93.6742 14.2666 92.941 14.1541 92.1493 14.1541C90.7189 14.1541 89.473 14.5095 88.4114 15.2202C87.3498 15.9219 86.5267 16.9474 85.9419 18.2969C85.3572 19.6373 85.0648 21.2656 85.0648 23.1818C85.0648 25.152 85.3572 26.8073 85.9419 28.1477C86.5357 29.4882 87.3633 30.5002 88.4249 31.1839C89.4864 31.8677 90.7144 32.2095 92.1088 32.2095C92.8915 32.2095 93.6157 32.1061 94.2814 31.8991C94.9561 31.6922 95.5544 31.3909 96.0762 30.995C96.598 30.5902 97.0298 30.0999 97.3716 29.5241C97.7225 28.9484 97.9654 28.2917 98.1003 27.554L104.011 27.581C103.858 28.8494 103.476 30.0729 102.864 31.2514C102.261 32.4209 101.447 33.469 100.421 34.3956C99.4048 35.3132 98.1903 36.0419 96.7779 36.5817C95.3745 37.1125 93.7866 37.3778 92.0144 37.3778C89.5494 37.3778 87.3453 36.8201 85.4022 35.7045C83.468 34.589 81.9386 32.9742 80.8141 30.8601C79.6986 28.746 79.1408 26.1866 79.1408 23.1818C79.1408 20.1681 79.7076 17.6042 80.8411 15.4901C81.9746 13.3759 83.513 11.7656 85.4561 10.6591C87.3993 9.54356 89.5854 8.98579 92.0144 8.98579C93.6157 8.98579 95.1001 9.2107 96.4675 9.66051C97.8439 10.1103 99.0629 10.767 100.124 11.6307C101.186 12.4853 102.05 13.5334 102.715 14.7749C103.39 16.0163 103.822 17.4377 104.011 19.0391ZM108.201 37V9.36364H114.044V20.7663H125.905V9.36364H131.735V37H125.905V25.5838H114.044V37H108.201Z" fill="white"/>
<path d="M53.1378 57V43.9091H58.3793C59.3423 43.9091 60.1456 44.0518 60.7891 44.3374C61.4325 44.6229 61.9162 45.0192 62.2401 45.5263C62.5639 46.0291 62.7259 46.6087 62.7259 47.2649C62.7259 47.7763 62.6236 48.2259 62.419 48.6136C62.2145 48.9972 61.9332 49.3125 61.5753 49.5597C61.2216 49.8026 60.8168 49.9751 60.3608 50.0774V50.2053C60.8594 50.2266 61.326 50.3672 61.7607 50.6271C62.1996 50.8871 62.5554 51.2514 62.8281 51.7202C63.1009 52.1847 63.2372 52.7386 63.2372 53.3821C63.2372 54.0767 63.0646 54.6967 62.7195 55.2422C62.3786 55.7834 61.8736 56.2116 61.2045 56.527C60.5355 56.8423 59.7109 57 58.7308 57H53.1378ZM55.9055 54.7372H58.1619C58.9332 54.7372 59.4957 54.5902 59.8494 54.2962C60.2031 53.9979 60.38 53.6016 60.38 53.1072C60.38 52.745 60.2926 52.4254 60.1179 52.1484C59.9432 51.8714 59.6939 51.6541 59.37 51.4964C59.0504 51.3388 58.669 51.2599 58.2259 51.2599H55.9055V54.7372ZM55.9055 49.3871H57.9574C58.3366 49.3871 58.6733 49.321 58.9673 49.1889C59.2656 49.0526 59.5 48.8608 59.6705 48.6136C59.8452 48.3665 59.9325 48.0703 59.9325 47.7251C59.9325 47.2521 59.7642 46.8707 59.4276 46.581C59.0952 46.2912 58.6222 46.1463 58.0085 46.1463H55.9055V49.3871ZM67.8059 43.9091V57H65.0382V43.9091H67.8059ZM70.0831 57V43.9091H72.8509V54.718H78.4631V57H70.0831ZM80.296 57V43.9091H83.0637V54.718H88.676V57H80.296ZM93.2766 43.9091V57H90.5089V43.9091H93.2766ZM97.8102 57H94.8443L99.3635 43.9091H102.93L107.443 57H104.477L101.198 46.9006H101.096L97.8102 57ZM97.6248 51.8544H104.631V54.0149H97.6248V51.8544ZM109.019 57V43.9091H114.183C115.172 43.9091 116.016 44.0859 116.715 44.4396C117.418 44.7891 117.953 45.2855 118.319 45.929C118.69 46.5682 118.875 47.3203 118.875 48.1854C118.875 49.0547 118.688 49.8026 118.313 50.429C117.938 51.0511 117.394 51.5284 116.683 51.8608C115.975 52.1932 115.119 52.3594 114.113 52.3594H110.655V50.1349H113.666C114.194 50.1349 114.633 50.0625 114.982 49.9176C115.332 49.7727 115.592 49.5554 115.762 49.2656C115.937 48.9759 116.024 48.6158 116.024 48.1854C116.024 47.7507 115.937 47.3842 115.762 47.0859C115.592 46.7876 115.33 46.5618 114.976 46.4084C114.627 46.2507 114.186 46.1719 113.653 46.1719H111.786V57H109.019ZM116.088 51.0426L119.342 57H116.286L113.103 51.0426H116.088ZM125.472 57H120.831V43.9091H125.51C126.827 43.9091 127.96 44.1712 128.911 44.6953C129.861 45.2152 130.592 45.9631 131.103 46.9389C131.619 47.9148 131.877 49.0824 131.877 50.4418C131.877 51.8054 131.619 52.9773 131.103 53.9574C130.592 54.9375 129.857 55.6896 128.898 56.2138C127.943 56.7379 126.801 57 125.472 57ZM123.599 54.6286H125.357C126.175 54.6286 126.863 54.4837 127.421 54.1939C127.984 53.8999 128.406 53.446 128.687 52.8324C128.972 52.2145 129.115 51.4176 129.115 50.4418C129.115 49.4744 128.972 48.6839 128.687 48.0703C128.406 47.4567 127.986 47.005 127.428 46.7152C126.869 46.4254 126.181 46.2805 125.363 46.2805H123.599V54.6286Z" fill="white"/>
</svg>
