<svg width="18" height="17" viewBox="0 0 18 17" fill="none" xmlns="http://www.w3.org/2000/svg">
<path d="M2.7 4.41933C2.7 3.35846 3.07928 2.34105 3.75442 1.5909C4.42955 0.840754 5.34522 0.419327 6.3 0.419327C7.25478 0.419327 8.17045 0.840754 8.84558 1.5909C9.52072 2.34105 9.9 3.35846 9.9 4.41933C9.9 5.48019 9.52072 6.49761 8.84558 7.24775C8.17045 7.9979 7.25478 8.41933 6.3 8.41933C5.34522 8.41933 4.42955 7.9979 3.75442 7.24775C3.07928 6.49761 2.7 5.48019 2.7 4.41933ZM0 15.4912C0 12.4131 2.24437 9.91933 5.01469 9.91933H7.58531C10.3556 9.91933 12.6 12.4131 12.6 15.4912C12.6 16.0037 12.2259 16.4193 11.7647 16.4193H0.835312C0.374063 16.4193 0 16.0037 0 15.4912ZM14.175 10.1693V8.16933H12.375C12.0009 8.16933 11.7 7.83495 11.7 7.41933C11.7 7.0037 12.0009 6.66933 12.375 6.66933H14.175V4.66933C14.175 4.2537 14.4759 3.91933 14.85 3.91933C15.2241 3.91933 15.525 4.2537 15.525 4.66933V6.66933H17.325C17.6991 6.66933 18 7.0037 18 7.41933C18 7.83495 17.6991 8.16933 17.325 8.16933H15.525V10.1693C15.525 10.585 15.2241 10.9193 14.85 10.9193C14.4759 10.9193 14.175 10.585 14.175 10.1693Z" fill="white"/>
</svg>
