<?xml version="1.0" standalone="no"?>
<!DOCTYPE svg PUBLIC "-//W3C//DTD SVG 20010904//EN"
 "http://www.w3.org/TR/2001/REC-SVG-20010904/DTD/svg10.dtd">
<svg version="1.0" xmlns="http://www.w3.org/2000/svg"
 width="360.000000pt" height="360.000000pt" viewBox="0 0 360.000000 360.000000"
 preserveAspectRatio="xMidYMid meet">
<metadata>
Created by potrace 1.14, written by Peter Selinger 2001-2017
</metadata>
<g transform="translate(0.000000,360.000000) scale(0.100000,-0.100000)"
fill="#000000" stroke="none">
<path d="M1678 3575 c-2 -1 -34 -5 -73 -8 -279 -24 -582 -139 -820 -309 -121
-87 -296 -257 -406 -395 -101 -126 -245 -404 -274 -529 -2 -10 -14 -53 -25
-94 -37 -138 -49 -262 -45 -475 1 -110 6 -216 9 -235 23 -121 30 -155 56 -247
169 -592 721 -1106 1315 -1223 33 -6 80 -16 105 -21 150 -29 398 -28 585 1 94
15 106 18 211 49 357 104 643 306 904 637 117 149 257 447 286 607 2 17 7 33
9 36 2 4 6 27 10 51 3 25 8 52 10 60 18 65 27 419 14 520 -4 30 -10 78 -14
105 -47 372 -254 776 -517 1010 -24 22 -64 58 -88 79 -55 49 -216 155 -295
194 -186 93 -320 136 -523 167 -23 4 -54 9 -70 11 -32 5 -359 14 -364 9z"/>
</g>
</svg>
